<?xml version="1.0" encoding="UTF-8" standalone="no"?><!DOCTYPE svg PUBLIC "-//W3C//DTD SVG 1.1//EN" "http://www.w3.org/Graphics/SVG/1.1/DTD/svg11.dtd"><svg width="100%" height="100%" viewBox="0 0 513 104" version="1.1" xmlns="http://www.w3.org/2000/svg" xmlns:xlink="http://www.w3.org/1999/xlink" xml:space="preserve" style="fill-rule:evenodd;clip-rule:evenodd;stroke-linejoin:round;stroke-miterlimit:1.41421;"><path d="M512.155,9.231c0,-5.095 -4.137,-9.231 -9.232,-9.231l-493.692,0c-5.095,0 -9.231,4.136 -9.231,9.231l0,85.102c0,5.095 4.136,9.232 9.231,9.232l493.692,0c5.095,0 9.232,-4.137 9.232,-9.232l0,-85.102Z" style="fill:#e7b73e;"/><g><path id="path148" d="M17.785,21.936l18.059,72.261l16.111,-4.185c0,0 -2.136,-8.18 6.103,-10.536c8.805,-2.521 11.124,6.063 11.124,6.063l16.165,-4.364l-17.747,-72.105l-15.645,3.977c0,0 1.687,8.856 -7.005,10.994c-8.183,2.014 -10.975,-6.315 -10.975,-6.315l-16.19,4.21l0,0Z" style="fill:#fff;fill-rule:nonzero;"/><path id="path152" d="M39.113,45.718c0,0 8.562,-21.053 17.434,-23.237c8.873,-2.182 13.078,1.715 11.208,7.175c0,0 -4.203,15.596 -10.117,13.412c-5.616,-2.073 -5.758,-4.21 -5.758,-4.21c0,0 -6.54,12.478 -8.409,22.147c0,0 4.825,-0.467 7.316,1.093c2.149,1.344 3.846,2.667 0.615,11.095c0,0 -3.338,9.879 -8.21,8.833c-5.233,-1.128 -10.566,-5.26 -9.152,-17.396c1.094,-9.396 5.073,-18.912 5.073,-18.912" style="fill:#373639;fill-rule:nonzero;"/></g><path id="path156" d="M132.087,33.443l-0.149,0l-6.792,24.252l13.88,0l-6.939,-24.252l0,0Zm-10.149,35.149l-2.761,9.625l-15.522,0l16.791,-55.967l22.685,0l17.014,55.967l-15.224,0l-2.909,-9.625l-20.074,0Z" style="fill:#373639;fill-rule:nonzero;"/><path id="path160" d="M179.851,65.233l23.357,0l0,12.984l-38.281,0l0,-55.967l14.924,0l0,42.983l0,0Z" style="fill:#373639;fill-rule:nonzero;"/><path id="path164" d="M222.758,65.233l23.358,0l0,12.984l-38.282,0l0,-55.967l14.924,0l0,42.983l0,0Z" style="fill:#373639;fill-rule:nonzero;"/><path id="path168" d="M285.291,56.502l0,-12.611c0,-8.283 -2.761,-9.104 -10.521,-9.104c-7.76,0 -10.298,0.821 -10.521,9.104l0,12.611c0.223,8.358 2.761,9.179 10.521,9.179c7.76,0 10.521,-0.821 10.521,-9.179m-36.414,1.641l0,-15.818c0,-17.239 10.744,-20.522 25.893,-20.522c15.149,0 25.893,3.283 25.893,20.522l0,15.818c0,17.239 -10.744,20.522 -25.893,20.522c-15.149,0 -25.893,-3.283 -25.893,-20.522" style="fill:#373639;fill-rule:nonzero;"/><path id="path172" d="M355.29,57.023l0,1.643c0,6.118 -0.075,11.641 -5.148,15.894c-5.074,4.179 -11.269,4.105 -17.76,4.105c-15.223,0 -26.342,-0.748 -26.342,-21.193l0,-14.476c0,-18.507 9.925,-21.193 26.342,-21.193c15.372,0 22.535,1.568 22.833,18.357l0,2.164l-15.372,0l0,-2.164c-0.521,-4.999 -4.029,-5.373 -9.104,-5.373c-8.507,0 -9.327,2.611 -9.327,10.596l0,8.73c0,8.359 0.374,11.567 9.327,11.567c6.195,0 9.18,-0.447 9.18,-7.014l0,-1.643l15.371,0Z" style="fill:#373639;fill-rule:nonzero;"/><rect id="path174" x="361.633" y="22.251" width="14.925" height="55.967" style="fill:#373639;fill-rule:nonzero;"/><path id="path178" d="M398.866,78.217l-14.925,0l0,-55.967l25.222,0l16.047,42.983l0.594,0l-0.895,-42.983l14.925,0l0,55.967l-25.446,0l-15.82,-42.983l-0.597,0l0.895,42.983l0,0Z" style="fill:#373639;fill-rule:nonzero;"/><path id="path182" d="M461.244,44.711l23.88,0l0,10.373l-23.88,0l0,10.896l25.968,0l0,12.237l-40.893,0l0,-55.967l40.372,0l0,12.239l-25.447,0l0,10.222l0,0Z" style="fill:#373639;fill-rule:nonzero;"/></svg>