<?xml version="1.0" encoding="UTF-8" standalone="no"?><!DOCTYPE svg PUBLIC "-//W3C//DTD SVG 1.1//EN" "http://www.w3.org/Graphics/SVG/1.1/DTD/svg11.dtd"><svg width="100%" height="100%" viewBox="0 0 2314 1132" version="1.1" xmlns="http://www.w3.org/2000/svg" xmlns:xlink="http://www.w3.org/1999/xlink" xml:space="preserve" style="fill-rule:evenodd;clip-rule:evenodd;stroke-linejoin:round;stroke-miterlimit:1.41421;"><g><path d="M2181.45,0l-2049.27,0c-72.9,0 -132.175,59.328 -132.175,132.228l0,867.503c0,72.9 59.275,132.203 132.175,132.203l2049.27,0c72.9,0 132.225,-59.303 132.225,-132.203l0,-867.503c0,-72.9 -59.325,-132.228 -132.225,-132.228Z" style="fill:#e7b73e;fill-rule:nonzero;"/><rect x="333.131" y="239.722" width="171.216" height="660.181" style="fill:#373639;"/><path d="M869.775,239.722l-39.672,308.497l-24.341,-167.678c-7.349,-53.76 -14.062,-100.804 -20.778,-140.819l-222.093,0l0,660.181l150.071,0l0.66,-435.841l63.037,435.841l106.885,0l60.156,-445.434l0.319,445.434l149.731,0l0,-660.181l-223.975,0Z" style="fill:#373639;"/><path d="M1361.62,358.791c6.687,3.831 11.206,9.934 13.134,18.553c1.903,8.325 2.881,27.515 2.881,57.275l0,255.665c0,44.188 -2.881,71.069 -8.668,81.007c-5.738,9.909 -20.775,14.696 -45.435,14.696l0,-433.253c18.557,0 31.35,1.903 38.088,6.057Zm-1.613,541.112c40.969,0 71.682,-2.247 92.188,-6.716c20.119,-4.465 37.428,-12.156 51.172,-23.681c13.769,-11.231 23.706,-26.878 29.125,-46.728c5.762,-19.825 8.962,-59.497 8.962,-118.7l0,-231.69c0,-62.404 -2.565,-104.322 -6.081,-125.757c-3.831,-21.118 -13.428,-40.647 -28.806,-57.909c-15.041,-17.31 -37.428,-29.785 -66.553,-37.425c-29.128,-7.691 -77.125,-11.575 -160.01,-11.575l-127.687,0l0,660.181l207.69,0Z" style="fill:#373639;"/><path d="M1822.75,739.916c0,31.69 -1.609,52.15 -4.809,60.475c-3.197,8.325 -16.966,12.453 -27.538,12.453c-10.206,0 -16.968,-3.81 -20.459,-12.11c-3.2,-8.009 -5.128,-26.565 -5.128,-55.69l0,-174.413c0,-30.103 1.587,-48.659 4.493,-56.35c3.197,-7.347 9.913,-11.181 19.822,-11.181c10.547,0 24.61,4.494 28.175,12.819c3.516,8.618 5.444,26.878 5.444,54.712l0,169.285Zm-223.072,-500.194l0,660.181l154.275,0l10.863,-41.919c13.747,16.966 29.128,29.419 46.069,38.085c16.993,8.3 41.918,12.475 61.428,12.475c26.903,0 50.559,-7.032 70.09,-21.435c19.85,-14.062 32.35,-31.031 37.478,-50.268c5.444,-19.482 8.007,-48.925 8.007,-88.307l0,-185.253c0,-39.99 -0.66,-65.944 -2.563,-78.075c-1.637,-12.159 -7.081,-24.659 -15.7,-37.478c-8.959,-12.791 -21.434,-22.678 -38.084,-29.759c-16.969,-7.032 -36.475,-10.547 -59.228,-10.547c-19.51,0 -44.775,3.856 -61.744,11.865c-16.625,7.666 -32.006,19.507 -45.753,35.182l0,-214.747l-165.138,0Z" style="fill:#373639;"/></g></svg>